<svg width="42" height="41" viewBox="0 0 42 41" fill="none" xmlns="http://www.w3.org/2000/svg">
<path d="M33.7857 22.7143H22.7143V33.7857C22.7143 35.0036 21.7179 36 20.5 36C19.2821 36 18.2857 35.0036 18.2857 33.7857V22.7143H7.21429C5.99643 22.7143 5 21.7179 5 20.5C5 19.2821 5.99643 18.2857 7.21429 18.2857H18.2857V7.21429C18.2857 5.99643 19.2821 5 20.5 5C21.7179 5 22.7143 5.99643 22.7143 7.21429V18.2857H33.7857C35.0036 18.2857 36 19.2821 36 20.5C36 21.7179 35.0036 22.7143 33.7857 22.7143Z" fill="white"/>
</svg>
