<svg width="42" height="41" viewBox="0 0 42 41" fill="none" xmlns="http://www.w3.org/2000/svg">
<path d="M34.7936 5.10132H1.63428V30.6085H34.7936V5.10132ZM32.2428 28.0577H4.18499V7.65203H32.2428V28.0577Z" fill="white"/>
<path d="M37.344 11.4783V33.1593H8.01074V35.7101H39.8947V11.4783H37.344Z" fill="white"/>
<path d="M18.214 24.1093C21.3784 24.1093 23.9531 21.3085 23.9531 17.8659C23.9531 14.4233 21.3784 11.6226 18.214 11.6226C15.0495 11.6226 12.4749 14.4232 12.4749 17.8659C12.4749 21.3086 15.0495 24.1093 18.214 24.1093ZM18.214 14.1733C19.972 14.1733 21.4024 15.8298 21.4024 17.8659C21.4024 19.902 19.972 21.5585 18.214 21.5585C16.4559 21.5585 15.0256 19.902 15.0256 17.8659C15.0256 15.8298 16.4559 14.1733 18.214 14.1733Z" fill="white"/>
<path d="M6.7356 10.8406H9.28631V24.8695H6.7356V10.8406Z" fill="white"/>
<path d="M27.1414 10.8406H29.6921V24.8695H27.1414V10.8406Z" fill="white"/>
</svg>
