<svg width="41" height="41" viewBox="0 0 41 41" fill="none" xmlns="http://www.w3.org/2000/svg">
<path d="M31.7423 34.0096H6.80197V9.0693H21.7888L24.0561 6.802H6.80197C6.20064 6.802 5.62395 7.04088 5.19875 7.46608C4.77354 7.89128 4.53467 8.46798 4.53467 9.0693V34.0096C4.53467 34.6109 4.77354 35.1876 5.19875 35.6128C5.62395 36.038 6.20064 36.2769 6.80197 36.2769H31.7423C32.3436 36.2769 32.9203 36.038 33.3455 35.6128C33.7707 35.1876 34.0096 34.6109 34.0096 34.0096V17.0049L31.7423 19.2722V34.0096Z" fill="white"/>
<path d="M38.0113 6.62067L34.1909 2.80027C34.0213 2.63025 33.8199 2.49536 33.5981 2.40333C33.3764 2.31129 33.1386 2.26392 32.8985 2.26392C32.6584 2.26392 32.4207 2.31129 32.1989 2.40333C31.9771 2.49536 31.7757 2.63025 31.6061 2.80027L16.0638 18.4333L14.8055 23.8862C14.7519 24.1505 14.7575 24.4234 14.822 24.6853C14.8864 24.9472 15.0082 25.1915 15.1783 25.4007C15.3485 25.61 15.563 25.7789 15.8063 25.8953C16.0495 26.0117 16.3156 26.0728 16.5853 26.0741C16.7247 26.0895 16.8653 26.0895 17.0047 26.0741L22.5029 24.8611L38.0113 9.20539C38.1813 9.03585 38.3162 8.83442 38.4082 8.61265C38.5002 8.39088 38.5476 8.15314 38.5476 7.91303C38.5476 7.67292 38.5002 7.43518 38.4082 7.21341C38.3162 6.99164 38.1813 6.79022 38.0113 6.62067V6.62067ZM21.3239 22.7639L17.1748 23.6821L18.1384 19.567L29.8377 7.78833L33.0345 10.9852L21.3239 22.7639ZM34.3156 9.7042L31.1187 6.5073L32.8758 4.71614L36.0954 7.9357L34.3156 9.7042Z" fill="white"/>
</svg>
