<svg width="42" height="42" viewBox="0 0 42 42" fill="none" xmlns="http://www.w3.org/2000/svg">
<path d="M34.6961 31.4276C33.9443 29.6468 32.8533 28.0292 31.4838 26.6649C30.1185 25.2967 28.5012 24.2059 26.7212 23.4526C26.7052 23.4447 26.6893 23.4407 26.6733 23.4327C29.1563 21.6392 30.7704 18.7179 30.7704 15.4219C30.7704 9.96174 26.3465 5.53784 20.8864 5.53784C15.4263 5.53784 11.0024 9.96174 11.0024 15.4219C11.0024 18.7179 12.6165 21.6392 15.0995 23.4367C15.0835 23.4447 15.0676 23.4486 15.0517 23.4566C13.2662 24.2099 11.664 25.2899 10.289 26.6689C8.92082 28.0342 7.82997 29.6515 7.0767 31.4316C6.33668 33.1742 5.93757 35.0426 5.90098 36.9355C5.89991 36.9781 5.90738 37.0204 5.92292 37.06C5.93847 37.0996 5.96179 37.1357 5.9915 37.1662C6.02121 37.1966 6.05672 37.2208 6.09593 37.2373C6.13515 37.2539 6.17727 37.2624 6.21982 37.2623H8.61111C8.78647 37.2623 8.92596 37.1229 8.92995 36.9515C9.00966 33.8747 10.2452 30.9932 12.4292 28.8091C14.689 26.5493 17.6901 25.3059 20.8864 25.3059C24.0828 25.3059 27.0839 26.5493 29.3436 28.8091C31.5277 30.9932 32.7632 33.8747 32.8429 36.9515C32.8469 37.1268 32.9864 37.2623 33.1617 37.2623H35.553C35.5956 37.2624 35.6377 37.2539 35.6769 37.2373C35.7161 37.2208 35.7516 37.1966 35.7813 37.1662C35.8111 37.1357 35.8344 37.0996 35.8499 37.06C35.8655 37.0204 35.8729 36.9781 35.8719 36.9355C35.832 35.0305 35.4374 33.1772 34.6961 31.4276V31.4276ZM20.8864 22.2769C19.0571 22.2769 17.3353 21.5635 16.0401 20.2682C14.7448 18.9729 14.0314 17.2512 14.0314 15.4219C14.0314 13.5925 14.7448 11.8708 16.0401 10.5755C17.3353 9.28022 19.0571 8.56681 20.8864 8.56681C22.7158 8.56681 24.4375 9.28022 25.7328 10.5755C27.0281 11.8708 27.7415 13.5925 27.7415 15.4219C27.7415 17.2512 27.0281 18.9729 25.7328 20.2682C24.4375 21.5635 22.7158 22.2769 20.8864 22.2769Z" fill="white"/>
</svg>
