<svg width="42" height="41" viewBox="0 0 42 41" fill="none" xmlns="http://www.w3.org/2000/svg">
<path fill-rule="evenodd" clip-rule="evenodd" d="M27.4231 6.17164C24.3558 4.80492 20.9289 4.46634 17.6534 5.20639C14.3779 5.94644 11.4294 7.72547 9.24763 10.2782C7.06584 12.8308 5.76767 16.0204 5.54672 19.3712C5.32577 22.7219 6.19389 26.0543 8.02159 28.8714C9.8493 31.6885 12.5387 33.8393 15.6886 35.003C18.8385 36.1668 22.2803 36.2811 25.5005 35.329C28.7207 34.3768 31.5469 32.4093 33.5576 29.7197C35.5682 27.0302 36.6556 23.7627 36.6575 20.4047V18.8411C36.6575 18.0499 37.2988 17.4086 38.09 17.4086C38.8811 17.4086 39.5225 18.0499 39.5225 18.8411V20.4063C39.5202 24.3822 38.2328 28.2508 35.8522 31.4352C33.4717 34.6196 30.1255 36.9491 26.3128 38.0764C22.5001 39.2037 18.4252 39.0683 14.6957 37.6905C10.9663 36.3126 7.78209 33.7661 5.61812 30.4308C3.45415 27.0954 2.42632 23.1499 2.68792 19.1827C2.94951 15.2154 4.48653 11.439 7.06972 8.4167C9.65292 5.39436 13.1439 3.28802 17.022 2.41181C20.9001 1.53561 24.9575 1.93648 28.5892 3.55465C29.3119 3.87665 29.6367 4.72352 29.3147 5.44618C28.9927 6.16884 28.1458 6.49364 27.4231 6.17164Z" fill="white"/>
<path fill-rule="evenodd" clip-rule="evenodd" d="M39.1027 5.78845C39.6624 6.3476 39.6628 7.25461 39.1037 7.81432L22.0989 24.8361C21.8303 25.105 21.4659 25.2561 21.0858 25.2562C20.7058 25.2563 20.3413 25.1053 20.0725 24.8366L14.9711 19.7352C14.4117 19.1757 14.4117 18.2687 14.9711 17.7093C15.5305 17.1499 16.4375 17.1499 16.997 17.7093L21.0849 21.7973L37.0768 5.78946C37.6359 5.22975 38.543 5.2293 39.1027 5.78845Z" fill="white"/>
</svg>
